<svg xmlns="http://www.w3.org/2000/svg" xmlns:xlink="http://www.w3.org/1999/xlink" width="500" zoomAndPan="magnify" viewBox="0 0 375 374.999991" height="500" preserveAspectRatio="xMidYMid meet" version="1.0"><defs><g/><clipPath id="daa9b3f36e"><rect x="0" width="53" y="0" height="8"/></clipPath></defs><rect x="-37.5" width="450" fill="#ffffff" y="-37.499999" height="449.999989" fill-opacity="1"/><rect x="-37.5" width="450" fill="#f1efe7" y="-37.499999" height="449.999989" fill-opacity="1"/><g fill="#000000" fill-opacity="1"><g transform="translate(80.706278, 183.644489)"><g><path d="M 35.1875 -26.859375 C 38.0625 -23.710938 39.5 -19.863281 39.5 -15.3125 C 39.5 -10.769531 38.0625 -6.929688 35.1875 -3.796875 C 32.3125 -0.671875 28.660156 0.890625 24.234375 0.890625 C 20.160156 0.890625 16.8125 -0.5625 14.1875 -3.46875 L 14.0625 -3.46875 L 14.0625 0 L 3.59375 0 L 3.59375 -51.46875 L 14.1875 -51.46875 L 14.1875 -27.765625 C 16.8125 -30.316406 20.160156 -31.59375 24.234375 -31.59375 C 28.660156 -31.59375 32.3125 -30.015625 35.1875 -26.859375 Z M 26.265625 -10.140625 C 27.585938 -11.472656 28.25 -13.195312 28.25 -15.3125 C 28.25 -17.425781 27.554688 -19.160156 26.171875 -20.515625 C 24.796875 -21.878906 23.09375 -22.5625 21.0625 -22.5625 C 19.070312 -22.5625 17.382812 -21.878906 16 -20.515625 C 14.625 -19.160156 13.9375 -17.425781 13.9375 -15.3125 C 13.9375 -13.238281 14.601562 -11.523438 15.9375 -10.171875 C 17.28125 -8.816406 18.988281 -8.140625 21.0625 -8.140625 C 23.21875 -8.140625 24.953125 -8.804688 26.265625 -10.140625 Z M 26.265625 -10.140625 "/></g></g></g><g fill="#000000" fill-opacity="1"><g transform="translate(114.220367, 183.644489)"><g><path d="M 34.65625 -13.890625 L 12.390625 -13.890625 C 12.390625 -11.734375 13.085938 -10.132812 14.484375 -9.09375 C 15.878906 -8.0625 17.394531 -7.546875 19.03125 -7.546875 C 20.75 -7.546875 22.101562 -7.773438 23.09375 -8.234375 C 24.09375 -8.691406 25.234375 -9.597656 26.515625 -10.953125 L 34.171875 -7.125 C 30.984375 -1.78125 25.675781 0.890625 18.25 0.890625 C 13.625 0.890625 9.65625 -0.691406 6.34375 -3.859375 C 3.03125 -7.035156 1.375 -10.851562 1.375 -15.3125 C 1.375 -19.78125 3.03125 -23.609375 6.34375 -26.796875 C 9.65625 -29.992188 13.625 -31.59375 18.25 -31.59375 C 23.113281 -31.59375 27.070312 -30.1875 30.125 -27.375 C 33.175781 -24.5625 34.703125 -20.539062 34.703125 -15.3125 C 34.703125 -14.601562 34.6875 -14.128906 34.65625 -13.890625 Z M 12.6875 -19.75 L 24.359375 -19.75 C 24.117188 -21.34375 23.488281 -22.566406 22.46875 -23.421875 C 21.457031 -24.285156 20.148438 -24.71875 18.546875 -24.71875 C 16.796875 -24.71875 15.398438 -24.257812 14.359375 -23.34375 C 13.328125 -22.425781 12.769531 -21.226562 12.6875 -19.75 Z M 12.6875 -19.75 "/></g></g></g><g fill="#000000" fill-opacity="1"><g transform="translate(142.946649, 183.644489)"><g><path d="M 4.609375 -47.8125 C 5.847656 -49.050781 7.320312 -49.671875 9.03125 -49.671875 C 10.75 -49.671875 12.222656 -49.050781 13.453125 -47.8125 C 14.691406 -46.570312 15.3125 -45.09375 15.3125 -43.375 C 15.3125 -41.664062 14.691406 -40.191406 13.453125 -38.953125 C 12.222656 -37.722656 10.75 -37.109375 9.03125 -37.109375 C 7.320312 -37.109375 5.847656 -37.722656 4.609375 -38.953125 C 3.367188 -40.191406 2.75 -41.664062 2.75 -43.375 C 2.75 -45.09375 3.367188 -46.570312 4.609375 -47.8125 Z M 3.59375 -30.703125 L 3.59375 0 L 14.1875 0 L 14.1875 -30.703125 Z M 3.59375 -30.703125 "/></g></g></g><g fill="#000000" fill-opacity="1"><g transform="translate(153.667214, 183.644489)"><g/></g></g><g fill="#000000" fill-opacity="1"><g transform="translate(162.643799, 183.644489)"><g/></g></g><g fill="#000000" fill-opacity="1"><g transform="translate(171.632053, 183.644489)"><g><path d="M 14.84375 -49.375 L 14.84375 -9.875 L 31.84375 -9.875 L 31.84375 0 L 3.59375 0 L 3.59375 -49.375 Z M 14.84375 -49.375 "/></g></g></g><g fill="#000000" fill-opacity="1"><g transform="translate(198.084132, 183.644489)"><g><path d="M 4.609375 -47.8125 C 5.847656 -49.050781 7.320312 -49.671875 9.03125 -49.671875 C 10.75 -49.671875 12.222656 -49.050781 13.453125 -47.8125 C 14.691406 -46.570312 15.3125 -45.09375 15.3125 -43.375 C 15.3125 -41.664062 14.691406 -40.191406 13.453125 -38.953125 C 12.222656 -37.722656 10.75 -37.109375 9.03125 -37.109375 C 7.320312 -37.109375 5.847656 -37.722656 4.609375 -38.953125 C 3.367188 -40.191406 2.75 -41.664062 2.75 -43.375 C 2.75 -45.09375 3.367188 -46.570312 4.609375 -47.8125 Z M 3.59375 -30.703125 L 3.59375 0 L 14.1875 0 L 14.1875 -30.703125 Z M 3.59375 -30.703125 "/></g></g></g><g fill="#000000" fill-opacity="1"><g transform="translate(208.796293, 183.644489)"><g><path d="M 16.9375 -31.59375 C 18.6875 -31.59375 20.421875 -31.394531 22.140625 -31 C 23.859375 -30.601562 25.132812 -30.203125 25.96875 -29.796875 L 27.234375 -29.203125 L 23.765625 -22.265625 C 21.367188 -23.535156 19.09375 -24.171875 16.9375 -24.171875 C 15.738281 -24.171875 14.890625 -24.039062 14.390625 -23.78125 C 13.890625 -23.53125 13.640625 -23.046875 13.640625 -22.328125 C 13.640625 -22.160156 13.660156 -22 13.703125 -21.84375 C 13.742188 -21.6875 13.820312 -21.535156 13.9375 -21.390625 C 14.0625 -21.253906 14.171875 -21.132812 14.265625 -21.03125 C 14.367188 -20.9375 14.539062 -20.828125 14.78125 -20.703125 C 15.019531 -20.585938 15.207031 -20.5 15.34375 -20.4375 C 15.488281 -20.375 15.71875 -20.28125 16.03125 -20.15625 C 16.351562 -20.039062 16.59375 -19.953125 16.75 -19.890625 C 16.914062 -19.835938 17.1875 -19.75 17.5625 -19.625 C 17.9375 -19.507812 18.226562 -19.429688 18.4375 -19.390625 C 19.664062 -19.023438 20.738281 -18.625 21.65625 -18.1875 C 22.582031 -17.75 23.550781 -17.148438 24.5625 -16.390625 C 25.582031 -15.640625 26.367188 -14.6875 26.921875 -13.53125 C 27.484375 -12.375 27.765625 -11.054688 27.765625 -9.578125 C 27.765625 -2.597656 22.914062 0.890625 13.21875 0.890625 C 11.03125 0.890625 8.945312 0.550781 6.96875 -0.125 C 5 -0.800781 3.570312 -1.476562 2.6875 -2.15625 L 1.375 -3.234375 L 5.6875 -10.46875 C 6 -10.1875 6.414062 -9.859375 6.9375 -9.484375 C 7.457031 -9.109375 8.394531 -8.585938 9.75 -7.921875 C 11.113281 -7.265625 12.289062 -6.9375 13.28125 -6.9375 C 15.476562 -6.9375 16.578125 -7.675781 16.578125 -9.15625 C 16.578125 -9.832031 16.296875 -10.359375 15.734375 -10.734375 C 15.179688 -11.117188 14.234375 -11.550781 12.890625 -12.03125 C 11.554688 -12.507812 10.507812 -12.945312 9.75 -13.34375 C 7.832031 -14.34375 6.316406 -15.46875 5.203125 -16.71875 C 4.085938 -17.976562 3.53125 -19.644531 3.53125 -21.71875 C 3.53125 -24.832031 4.734375 -27.253906 7.140625 -28.984375 C 9.554688 -30.722656 12.820312 -31.59375 16.9375 -31.59375 Z M 16.9375 -31.59375 "/></g></g></g><g fill="#000000" fill-opacity="1"><g transform="translate(230.879498, 183.644489)"><g><path d="M 5.6875 -3.796875 C 2.8125 -6.929688 1.375 -10.769531 1.375 -15.3125 C 1.375 -19.863281 2.8125 -23.710938 5.6875 -26.859375 C 8.5625 -30.015625 12.210938 -31.59375 16.640625 -31.59375 C 20.703125 -31.59375 24.050781 -30.316406 26.6875 -27.765625 L 26.6875 -30.703125 L 37.28125 -30.703125 L 37.28125 0 L 26.8125 0 L 26.8125 -3.46875 L 26.6875 -3.46875 C 24.050781 -0.5625 20.703125 0.890625 16.640625 0.890625 C 12.210938 0.890625 8.5625 -0.671875 5.6875 -3.796875 Z M 14.6875 -20.515625 C 13.3125 -19.160156 12.625 -17.425781 12.625 -15.3125 C 12.625 -13.195312 13.28125 -11.472656 14.59375 -10.140625 C 15.914062 -8.804688 17.65625 -8.140625 19.8125 -8.140625 C 21.882812 -8.140625 23.585938 -8.816406 24.921875 -10.171875 C 26.265625 -11.523438 26.9375 -13.238281 26.9375 -15.3125 C 26.9375 -17.425781 26.242188 -19.160156 24.859375 -20.515625 C 23.484375 -21.878906 21.800781 -22.5625 19.8125 -22.5625 C 17.769531 -22.5625 16.0625 -21.878906 14.6875 -20.515625 Z M 14.6875 -20.515625 "/></g></g></g><g fill="#000000" fill-opacity="1"><g transform="translate(264.393587, 183.644489)"><g><path d="M 10.40625 -12.8125 C 12.320312 -12.8125 13.945312 -12.140625 15.28125 -10.796875 C 16.625 -9.460938 17.296875 -7.835938 17.296875 -5.921875 C 17.296875 -4.046875 16.625 -2.441406 15.28125 -1.109375 C 13.945312 0.222656 12.320312 0.890625 10.40625 0.890625 C 8.53125 0.890625 6.925781 0.222656 5.59375 -1.109375 C 4.257812 -2.441406 3.59375 -4.046875 3.59375 -5.921875 C 3.59375 -7.835938 4.257812 -9.460938 5.59375 -10.796875 C 6.925781 -12.140625 8.53125 -12.8125 10.40625 -12.8125 Z M 10.40625 -12.8125 "/></g></g></g><g fill="#000000" fill-opacity="1"><g transform="translate(277.921109, 183.644489)"><g/></g></g><g transform="matrix(1, 0, 0, 1, 163, 196)"><g clip-path="url(#daa9b3f36e)"><g fill="#000000" fill-opacity="1"><g transform="translate(1.061146, 5.62965)"><g><path d="M 1.046875 -3.53125 L 1.046875 -2.328125 L 2.46875 -2.328125 C 2.550781 -2.328125 2.617188 -2.300781 2.671875 -2.25 C 2.722656 -2.195312 2.75 -2.128906 2.75 -2.046875 C 2.75 -1.984375 2.722656 -1.925781 2.671875 -1.875 C 2.617188 -1.820312 2.550781 -1.796875 2.46875 -1.796875 L 1.046875 -1.796875 L 1.046875 -0.28125 C 1.046875 -0.195312 1.015625 -0.128906 0.953125 -0.078125 C 0.898438 -0.0234375 0.835938 0 0.765625 0 C 0.679688 0 0.613281 -0.0234375 0.5625 -0.078125 C 0.507812 -0.128906 0.484375 -0.195312 0.484375 -0.28125 L 0.484375 -3.78125 C 0.484375 -3.851562 0.507812 -3.914062 0.5625 -3.96875 C 0.613281 -4.03125 0.679688 -4.0625 0.765625 -4.0625 L 2.734375 -4.0625 C 2.816406 -4.0625 2.882812 -4.035156 2.9375 -3.984375 C 2.988281 -3.929688 3.015625 -3.863281 3.015625 -3.78125 C 3.015625 -3.71875 2.988281 -3.660156 2.9375 -3.609375 C 2.882812 -3.554688 2.816406 -3.53125 2.734375 -3.53125 Z M 1.046875 -3.53125 "/></g></g></g><g fill="#000000" fill-opacity="1"><g transform="translate(8.109186, 5.62965)"><g><path d="M 1.921875 -3.109375 C 2.023438 -3.109375 2.113281 -3.082031 2.1875 -3.03125 C 2.257812 -2.976562 2.296875 -2.910156 2.296875 -2.828125 C 2.296875 -2.742188 2.269531 -2.675781 2.21875 -2.625 C 2.175781 -2.570312 2.117188 -2.546875 2.046875 -2.546875 C 2.015625 -2.546875 1.960938 -2.554688 1.890625 -2.578125 C 1.804688 -2.609375 1.742188 -2.625 1.703125 -2.625 C 1.578125 -2.625 1.457031 -2.582031 1.34375 -2.5 C 1.226562 -2.414062 1.132812 -2.300781 1.0625 -2.15625 C 1 -2.007812 0.96875 -1.847656 0.96875 -1.671875 L 0.96875 -0.28125 C 0.96875 -0.195312 0.941406 -0.128906 0.890625 -0.078125 C 0.835938 -0.0234375 0.769531 0 0.6875 0 C 0.601562 0 0.535156 -0.0234375 0.484375 -0.078125 C 0.429688 -0.128906 0.40625 -0.195312 0.40625 -0.28125 L 0.40625 -2.765625 C 0.40625 -2.835938 0.429688 -2.898438 0.484375 -2.953125 C 0.535156 -3.003906 0.601562 -3.03125 0.6875 -3.03125 C 0.769531 -3.03125 0.835938 -3.003906 0.890625 -2.953125 C 0.941406 -2.898438 0.96875 -2.835938 0.96875 -2.765625 L 0.96875 -2.46875 C 1.050781 -2.65625 1.175781 -2.804688 1.34375 -2.921875 C 1.507812 -3.035156 1.703125 -3.097656 1.921875 -3.109375 Z M 1.921875 -3.109375 "/></g></g></g><g fill="#000000" fill-opacity="1"><g transform="translate(14.282307, 5.62965)"><g><path d="M 0.9375 -0.28125 C 0.9375 -0.195312 0.910156 -0.128906 0.859375 -0.078125 C 0.804688 -0.0234375 0.738281 0 0.65625 0 C 0.582031 0 0.515625 -0.0234375 0.453125 -0.078125 C 0.398438 -0.128906 0.375 -0.195312 0.375 -0.28125 L 0.375 -2.78125 C 0.375 -2.863281 0.398438 -2.929688 0.453125 -2.984375 C 0.515625 -3.035156 0.582031 -3.0625 0.65625 -3.0625 C 0.738281 -3.0625 0.804688 -3.035156 0.859375 -2.984375 C 0.910156 -2.929688 0.9375 -2.863281 0.9375 -2.78125 Z M 0.65625 -3.453125 C 0.550781 -3.453125 0.472656 -3.472656 0.421875 -3.515625 C 0.367188 -3.554688 0.34375 -3.617188 0.34375 -3.703125 L 0.34375 -3.796875 C 0.34375 -3.890625 0.367188 -3.953125 0.421875 -3.984375 C 0.472656 -4.023438 0.554688 -4.046875 0.671875 -4.046875 C 0.773438 -4.046875 0.847656 -4.023438 0.890625 -3.984375 C 0.941406 -3.953125 0.96875 -3.890625 0.96875 -3.796875 L 0.96875 -3.703125 C 0.96875 -3.609375 0.941406 -3.539062 0.890625 -3.5 C 0.847656 -3.46875 0.769531 -3.453125 0.65625 -3.453125 Z M 0.65625 -3.453125 "/></g></g></g><g fill="#000000" fill-opacity="1"><g transform="translate(19.377708, 5.62965)"><g><path d="M 0.234375 -0.46875 C 0.203125 -0.53125 0.1875 -0.582031 0.1875 -0.625 C 0.1875 -0.707031 0.226562 -0.773438 0.3125 -0.828125 C 0.34375 -0.859375 0.382812 -0.875 0.4375 -0.875 C 0.507812 -0.875 0.570312 -0.84375 0.625 -0.78125 C 0.75 -0.644531 0.875 -0.546875 1 -0.484375 C 1.132812 -0.421875 1.296875 -0.390625 1.484375 -0.390625 C 1.628906 -0.390625 1.757812 -0.421875 1.875 -0.484375 C 1.988281 -0.546875 2.046875 -0.648438 2.046875 -0.796875 C 2.046875 -0.929688 1.988281 -1.03125 1.875 -1.09375 C 1.757812 -1.164062 1.59375 -1.234375 1.375 -1.296875 C 1.15625 -1.347656 0.972656 -1.40625 0.828125 -1.46875 C 0.679688 -1.539062 0.554688 -1.632812 0.453125 -1.75 C 0.359375 -1.875 0.3125 -2.035156 0.3125 -2.234375 C 0.3125 -2.410156 0.359375 -2.5625 0.453125 -2.6875 C 0.554688 -2.820312 0.691406 -2.925781 0.859375 -3 C 1.023438 -3.070312 1.203125 -3.109375 1.390625 -3.109375 C 1.578125 -3.109375 1.757812 -3.070312 1.9375 -3 C 2.125 -2.9375 2.28125 -2.832031 2.40625 -2.6875 C 2.445312 -2.632812 2.46875 -2.578125 2.46875 -2.515625 C 2.46875 -2.453125 2.4375 -2.394531 2.375 -2.34375 C 2.332031 -2.300781 2.285156 -2.28125 2.234375 -2.28125 C 2.160156 -2.28125 2.101562 -2.304688 2.0625 -2.359375 C 1.976562 -2.453125 1.878906 -2.519531 1.765625 -2.5625 C 1.648438 -2.613281 1.519531 -2.640625 1.375 -2.640625 C 1.226562 -2.640625 1.101562 -2.609375 1 -2.546875 C 0.894531 -2.492188 0.84375 -2.394531 0.84375 -2.25 C 0.851562 -2.113281 0.910156 -2.007812 1.015625 -1.9375 C 1.128906 -1.875 1.304688 -1.8125 1.546875 -1.75 C 1.753906 -1.695312 1.925781 -1.640625 2.0625 -1.578125 C 2.195312 -1.515625 2.304688 -1.421875 2.390625 -1.296875 C 2.484375 -1.179688 2.53125 -1.023438 2.53125 -0.828125 C 2.53125 -0.648438 2.476562 -0.492188 2.375 -0.359375 C 2.269531 -0.222656 2.132812 -0.117188 1.96875 -0.046875 C 1.800781 0.0234375 1.625 0.0625 1.4375 0.0625 C 1.195312 0.0625 0.972656 0.0195312 0.765625 -0.0625 C 0.554688 -0.15625 0.378906 -0.289062 0.234375 -0.46875 Z M 0.234375 -0.46875 "/></g></g></g><g fill="#000000" fill-opacity="1"><g transform="translate(25.921656, 5.62965)"><g><path d="M 3.078125 -1.640625 C 3.078125 -1.566406 3.046875 -1.503906 2.984375 -1.453125 C 2.929688 -1.410156 2.867188 -1.390625 2.796875 -1.390625 L 0.765625 -1.390625 C 0.785156 -1.109375 0.890625 -0.878906 1.078125 -0.703125 C 1.265625 -0.535156 1.492188 -0.453125 1.765625 -0.453125 C 1.953125 -0.453125 2.101562 -0.476562 2.21875 -0.53125 C 2.332031 -0.582031 2.4375 -0.648438 2.53125 -0.734375 C 2.582031 -0.773438 2.640625 -0.796875 2.703125 -0.796875 C 2.765625 -0.796875 2.816406 -0.769531 2.859375 -0.71875 C 2.898438 -0.675781 2.921875 -0.625 2.921875 -0.5625 C 2.921875 -0.476562 2.882812 -0.40625 2.8125 -0.34375 C 2.695312 -0.226562 2.546875 -0.128906 2.359375 -0.046875 C 2.179688 0.0234375 1.992188 0.0625 1.796875 0.0625 C 1.484375 0.0625 1.207031 -0.00390625 0.96875 -0.140625 C 0.726562 -0.273438 0.539062 -0.457031 0.40625 -0.6875 C 0.28125 -0.925781 0.21875 -1.191406 0.21875 -1.484375 C 0.21875 -1.816406 0.285156 -2.101562 0.421875 -2.34375 C 0.554688 -2.59375 0.734375 -2.78125 0.953125 -2.90625 C 1.171875 -3.039062 1.40625 -3.109375 1.65625 -3.109375 C 1.90625 -3.109375 2.132812 -3.039062 2.34375 -2.90625 C 2.5625 -2.78125 2.738281 -2.601562 2.875 -2.375 C 3.007812 -2.15625 3.078125 -1.910156 3.078125 -1.640625 Z M 1.65625 -2.59375 C 1.4375 -2.59375 1.25 -2.53125 1.09375 -2.40625 C 0.9375 -2.289062 0.832031 -2.101562 0.78125 -1.84375 L 2.5 -1.84375 L 2.5 -1.890625 C 2.476562 -2.097656 2.382812 -2.265625 2.21875 -2.390625 C 2.050781 -2.523438 1.863281 -2.59375 1.65625 -2.59375 Z M 1.65625 -2.59375 "/></g></g></g><g fill="#000000" fill-opacity="1"><g transform="translate(33.004457, 5.62965)"><g><path d="M 2.671875 -3.03125 C 2.753906 -3.03125 2.820312 -3.003906 2.875 -2.953125 C 2.925781 -2.898438 2.953125 -2.835938 2.953125 -2.765625 L 2.953125 -1.21875 C 2.953125 -0.8125 2.835938 -0.5 2.609375 -0.28125 C 2.390625 -0.0625 2.078125 0.046875 1.671875 0.046875 C 1.273438 0.046875 0.960938 -0.0625 0.734375 -0.28125 C 0.515625 -0.5 0.40625 -0.8125 0.40625 -1.21875 L 0.40625 -2.765625 C 0.40625 -2.835938 0.429688 -2.898438 0.484375 -2.953125 C 0.535156 -3.003906 0.601562 -3.03125 0.6875 -3.03125 C 0.769531 -3.03125 0.835938 -3.003906 0.890625 -2.953125 C 0.941406 -2.898438 0.96875 -2.835938 0.96875 -2.765625 L 0.96875 -1.21875 C 0.96875 -0.707031 1.203125 -0.453125 1.671875 -0.453125 C 1.910156 -0.453125 2.09375 -0.515625 2.21875 -0.640625 C 2.34375 -0.773438 2.40625 -0.96875 2.40625 -1.21875 L 2.40625 -2.765625 C 2.40625 -2.835938 2.429688 -2.898438 2.484375 -2.953125 C 2.535156 -3.003906 2.597656 -3.03125 2.671875 -3.03125 Z M 2.671875 -3.03125 "/></g></g></g><g fill="#000000" fill-opacity="1"><g transform="translate(40.145201, 5.62965)"><g><path d="M 1.921875 -3.109375 C 2.023438 -3.109375 2.113281 -3.082031 2.1875 -3.03125 C 2.257812 -2.976562 2.296875 -2.910156 2.296875 -2.828125 C 2.296875 -2.742188 2.269531 -2.675781 2.21875 -2.625 C 2.175781 -2.570312 2.117188 -2.546875 2.046875 -2.546875 C 2.015625 -2.546875 1.960938 -2.554688 1.890625 -2.578125 C 1.804688 -2.609375 1.742188 -2.625 1.703125 -2.625 C 1.578125 -2.625 1.457031 -2.582031 1.34375 -2.5 C 1.226562 -2.414062 1.132812 -2.300781 1.0625 -2.15625 C 1 -2.007812 0.96875 -1.847656 0.96875 -1.671875 L 0.96875 -0.28125 C 0.96875 -0.195312 0.941406 -0.128906 0.890625 -0.078125 C 0.835938 -0.0234375 0.769531 0 0.6875 0 C 0.601562 0 0.535156 -0.0234375 0.484375 -0.078125 C 0.429688 -0.128906 0.40625 -0.195312 0.40625 -0.28125 L 0.40625 -2.765625 C 0.40625 -2.835938 0.429688 -2.898438 0.484375 -2.953125 C 0.535156 -3.003906 0.601562 -3.03125 0.6875 -3.03125 C 0.769531 -3.03125 0.835938 -3.003906 0.890625 -2.953125 C 0.941406 -2.898438 0.96875 -2.835938 0.96875 -2.765625 L 0.96875 -2.46875 C 1.050781 -2.65625 1.175781 -2.804688 1.34375 -2.921875 C 1.507812 -3.035156 1.703125 -3.097656 1.921875 -3.109375 Z M 1.921875 -3.109375 "/></g></g></g><g fill="#000000" fill-opacity="1"><g transform="translate(46.32042, 5.62965)"><g/></g></g></g></g></svg>